<?xml version="1.0" standalone="no"?>
<!DOCTYPE svg PUBLIC "-//W3C//DTD SVG 20010904//EN"
 "http://www.w3.org/TR/2001/REC-SVG-20010904/DTD/svg10.dtd">
<svg version="1.0" xmlns="http://www.w3.org/2000/svg"
 width="630.000000pt" height="380.000000pt" viewBox="0 0 630.000000 380.000000"
 preserveAspectRatio="xMidYMid meet">

<g transform="translate(0.000000,380.000000) scale(0.100000,-0.100000)"
fill="#000000" stroke="none">
<path d="M1050 2470 c-19 -5 -52 -12 -72 -15 l-38 -6 0 -185 0 -185 45 6 c24
4 70 12 102 19 l58 11 3 183 2 182 -32 -1 c-18 -1 -49 -5 -68 -9z"/>
<path d="M586 2391 c-49 -9 -91 -21 -93 -27 -4 -13 403 -913 422 -933 11 -11
28 -11 111 3 108 19 114 21 114 41 0 21 -410 919 -424 927 -14 10 -21 9 -130
-11z"/>
<path d="M4255 2311 c-30 -6 -30 -7 -33 -78 l-3 -72 38 6 c81 13 84 16 81 85
-3 59 -5 63 -28 65 -14 0 -38 -2 -55 -6z"/>
<path d="M2350 1950 l0 -320 55 0 55 0 0 320 0 320 -55 0 -55 0 0 -320z"/>
<path d="M3660 1950 l0 -320 60 0 60 0 0 150 c0 197 15 230 107 230 90 0 113
-48 113 -240 l0 -140 55 0 55 0 0 173 c0 159 -2 176 -22 217 -30 58 -84 90
-155 90 -60 0 -99 -13 -130 -42 l-23 -21 0 111 0 112 -60 0 -60 0 0 -320z"/>
<path d="M1880 2099 c-46 -19 -87 -58 -111 -106 -32 -68 -33 -179 0 -246 59
-121 205 -162 310 -86 l41 29 0 -30 0 -30 60 0 60 0 0 240 0 240 -60 0 -60 0
0 -37 0 -37 -27 26 c-16 15 -41 32 -56 37 -35 13 -123 13 -157 0z m178 -109
c68 -42 83 -162 26 -221 -104 -109 -265 10 -210 156 30 78 114 108 184 65z"/>
<path d="M2659 2083 c-74 -38 -110 -97 -117 -193 -10 -145 65 -245 200 -265
59 -9 135 9 180 41 30 22 78 88 78 107 0 4 -27 7 -59 7 -53 0 -63 -3 -89 -30
-42 -42 -108 -43 -151 -2 -17 15 -33 39 -37 55 l-6 27 176 0 176 0 0 48 c0
100 -45 177 -125 213 -63 29 -159 25 -226 -8z m165 -77 c36 -15 66 -50 66 -78
0 -16 -11 -18 -115 -18 -74 0 -115 4 -115 10 0 24 32 70 58 84 34 19 64 20
106 2z"/>
<path d="M3090 1755 l0 -355 60 0 60 0 0 147 0 146 23 -21 c60 -57 146 -66
228 -24 76 38 112 99 117 196 5 93 -11 148 -56 198 -46 51 -85 68 -160 68 -47
0 -67 -6 -104 -29 l-47 -30 -3 27 c-3 25 -6 27 -60 30 l-58 3 0 -356z m337
211 c29 -31 33 -42 33 -91 0 -95 -43 -146 -125 -147 -84 -2 -131 59 -123 157
7 86 55 128 138 121 35 -3 51 -11 77 -40z"/>
<path d="M4220 1870 l0 -240 55 0 55 0 0 240 0 240 -55 0 -55 0 0 -240z"/>
<path d="M4440 1937 c0 -159 2 -176 23 -217 50 -101 180 -128 280 -58 l27 19
0 -25 c0 -25 2 -26 60 -26 l60 0 0 240 0 240 -60 0 -60 0 0 -159 c0 -156 -1
-160 -25 -189 -31 -36 -73 -48 -119 -32 -62 20 -70 45 -74 223 l-4 157 -54 0
-54 0 0 -173z"/>
<path d="M5000 1870 l0 -240 60 0 60 0 0 159 c0 155 1 161 24 188 21 25 31 28
81 28 49 0 60 -4 80 -27 29 -34 38 -96 33 -241 l-3 -107 58 0 57 0 0 140 c0
152 10 195 51 224 48 33 134 12 157 -39 8 -16 12 -81 12 -175 l0 -150 60 0 60
0 0 159 c0 165 -10 223 -48 264 -68 75 -218 76 -287 1 l-25 -27 -33 31 c-41
39 -75 52 -140 52 -36 0 -65 -7 -94 -24 l-42 -24 -3 21 c-3 19 -10 22 -60 25
l-58 3 0 -241z"/>
<path d="M565 1731 l-80 -16 -3 -179 c-1 -99 1 -183 6 -188 7 -7 140 12 195
28 15 5 17 23 17 190 l0 184 -27 -1 c-16 -1 -64 -9 -108 -18z"/>
</g>
</svg>
