<?xml version="1.0" standalone="no"?>
<!DOCTYPE svg PUBLIC "-//W3C//DTD SVG 20010904//EN"
 "http://www.w3.org/TR/2001/REC-SVG-20010904/DTD/svg10.dtd">
<svg version="1.0" xmlns="http://www.w3.org/2000/svg"
 width="2500.000000pt" height="1408.000000pt" viewBox="0 0 2500.000000 1408.000000"
 preserveAspectRatio="xMidYMid meet">

<g transform="translate(0.000000,1408.000000) scale(0.100000,-0.100000)"
fill="#000000" stroke="none">
<path d="M0 7040 l0 -7040 12500 0 12500 0 0 7040 0 7040 -12500 0 -12500 0 0
-7040z m5504 1671 c98 -98 179 -181 180 -184 0 -4 -252 -263 -562 -576 -377
-382 -584 -584 -625 -611 -117 -77 -265 -105 -397 -75 -101 22 -105 22 -105 4
0 -9 215 -234 478 -500 l478 -483 -186 -185 -185 -186 -386 385 c-228 229
-401 409 -425 445 -58 87 -80 169 -80 290 -1 114 21 195 73 280 28 44 1542
1575 1559 1575 3 0 86 -80 183 -179z m11194 -933 c-4 -333 -7 -401 -21 -443
-37 -111 -12 -125 43 -24 19 35 66 95 105 134 143 143 309 192 510 150 196
-42 322 -170 372 -381 13 -57 17 -154 20 -566 l5 -498 -136 0 -136 0 0 408 c0
224 -5 445 -10 490 -21 166 -81 262 -188 303 -83 31 -206 24 -287 -15 -119
-59 -216 -189 -255 -342 -18 -70 -20 -112 -20 -461 l0 -383 -135 0 -135 0 0
1010 0 1010 136 0 136 0 -4 -392z m3052 237 l0 -155 -145 0 -145 0 0 155 0
155 145 0 145 0 0 -155z m-12852 -731 c63 -121 78 -280 38 -409 -35 -113 -67
-148 -851 -939 l-760 -766 -188 188 -187 187 572 574 c356 356 595 588 632
612 117 77 287 104 419 65 59 -17 80 -15 75 9 -2 8 -167 180 -367 382 -201
202 -414 419 -475 481 l-111 112 185 185 185 185 401 -402 c328 -331 406 -414
432 -464z m1893 838 c125 -33 205 -78 290 -162 108 -106 163 -221 184 -387 l7
-53 -136 0 c-75 0 -136 1 -136 3 0 36 -29 136 -53 180 -74 140 -224 206 -440
194 -174 -10 -285 -63 -339 -162 -34 -63 -43 -121 -28 -183 31 -130 155 -193
480 -242 445 -67 645 -185 705 -415 19 -76 19 -224 0 -300 -50 -189 -205 -342
-420 -414 -131 -44 -217 -54 -390 -48 -174 6 -254 25 -380 90 -94 48 -214 161
-262 247 -48 84 -83 201 -90 296 l-6 85 139 -3 139 -3 6 -50 c21 -168 104
-297 234 -363 156 -79 445 -73 590 13 102 59 165 166 165 278 0 113 -44 179
-153 231 -87 41 -157 58 -347 86 -281 41 -448 103 -559 205 -104 97 -145 196
-144 350 0 102 25 189 75 267 36 57 128 145 191 181 59 35 205 83 287 96 99
15 302 6 391 -17z m3184 -527 c179 -38 327 -158 418 -340 66 -133 97 -327 78
-490 -38 -320 -216 -552 -476 -620 -67 -17 -208 -20 -275 -4 -132 30 -265 137
-334 268 -56 107 -76 86 -42 -44 13 -49 16 -125 16 -407 l0 -348 -135 0 -135
0 0 990 0 990 135 0 135 0 0 -78 c0 -43 -7 -102 -15 -132 -27 -99 -29 -120
-12 -120 10 0 31 29 53 71 113 214 341 316 589 264z m1546 -22 c155 -53 282
-163 351 -304 55 -111 69 -176 75 -336 l6 -143 -537 0 c-508 0 -536 -1 -536
-18 0 -36 31 -137 57 -184 35 -63 120 -143 185 -173 150 -68 335 -48 435 47
30 29 93 142 93 167 0 8 43 11 140 11 l140 0 -6 -27 c-16 -68 -58 -161 -99
-224 -74 -110 -162 -178 -294 -227 -88 -33 -279 -42 -391 -18 -194 41 -358
170 -443 347 -65 135 -82 216 -81 379 0 148 15 230 61 334 77 175 221 310 389
366 96 32 148 39 264 36 85 -3 122 -9 191 -33z m1407 -100 l-3 -137 -56 3
c-84 4 -217 -17 -274 -43 -69 -31 -106 -65 -140 -127 -55 -102 -58 -127 -62
-591 l-5 -428 -134 0 -134 0 0 720 0 720 135 0 135 0 0 -82 c0 -46 -8 -117
-18 -159 -18 -75 -19 -99 -1 -99 5 0 29 42 53 94 52 111 107 175 181 212 61
29 171 52 263 53 l63 1 -3 -137z m839 122 c235 -44 423 -223 477 -455 9 -36
16 -71 16 -78 0 -10 -30 -12 -131 -10 l-132 3 -12 40 c-49 167 -184 265 -364
265 -204 0 -360 -129 -417 -343 -18 -70 -18 -228 1 -302 60 -230 261 -370 481
-335 147 24 252 112 294 249 l18 56 131 3 c106 2 131 0 131 -11 0 -8 -9 -48
-20 -91 -58 -228 -226 -390 -456 -442 -115 -25 -302 -15 -408 21 -156 55 -290
169 -365 314 -71 138 -86 204 -86 386 0 182 11 239 74 370 134 282 435 423
768 360z m2979 0 c174 -31 305 -121 371 -255 66 -136 66 -134 70 -687 l4 -503
-135 0 -136 0 0 88 c0 56 7 118 20 167 24 93 24 105 6 105 -8 0 -31 -35 -53
-77 -52 -107 -143 -198 -243 -246 -93 -44 -156 -57 -268 -57 -153 0 -269 46
-367 144 -93 94 -134 205 -120 329 25 221 160 346 418 387 34 5 152 14 262 19
287 15 345 37 345 136 0 89 -54 160 -149 196 -108 42 -345 37 -436 -8 -62 -31
-112 -95 -129 -165 l-6 -28 -130 0 c-146 0 -139 -5 -114 81 36 120 113 224
215 290 136 87 364 120 575 84z m2185 1 c189 -40 305 -157 361 -364 20 -72 21
-108 26 -579 l4 -503 -136 0 -136 0 0 433 c-1 545 -9 602 -100 701 -60 65
-129 89 -240 84 -68 -4 -97 -10 -142 -33 -107 -52 -196 -160 -246 -296 l-27
-74 -3 -407 -3 -408 -135 0 -134 0 0 720 0 720 135 0 135 0 0 -77 c0 -43 -7
-109 -16 -148 -27 -117 -28 -125 -13 -125 8 0 30 30 49 67 44 85 155 197 237
240 112 60 249 77 384 49z m-11151 -443 c1 -486 7 -555 58 -646 34 -60 95
-111 155 -129 23 -7 76 -12 118 -12 64 1 87 6 143 32 91 43 173 127 221 226
59 123 65 179 65 597 l0 369 135 0 135 0 0 -720 0 -720 -135 0 -135 0 0 78 c0
66 7 111 37 240 10 43 -25 23 -58 -34 -72 -127 -214 -246 -337 -284 -80 -25
-218 -27 -306 -4 -177 46 -284 157 -339 352 -20 73 -21 103 -25 585 l-3 507
135 0 136 0 0 -437z m9960 -283 l0 -720 -135 0 -135 0 0 720 0 720 135 0 135
0 0 -720z m-14308 679 c180 -38 342 -190 391 -369 39 -141 30 -248 -34 -379
-90 -183 -264 -291 -469 -291 -150 0 -255 45 -365 155 -78 77 -117 142 -140
230 -17 68 -19 199 -4 265 17 75 71 171 131 236 123 131 312 190 490 153z"/>
<path d="M11673 7345 c-65 -20 -124 -58 -179 -117 -181 -192 -178 -539 6 -728
126 -130 312 -161 475 -81 118 58 193 173 223 341 36 207 -33 427 -166 525
-91 67 -251 94 -359 60z"/>
<path d="M13179 7357 c-95 -27 -193 -107 -237 -194 -25 -48 -52 -139 -45 -147
4 -3 182 -6 396 -6 l390 0 -6 50 c-14 117 -99 235 -202 282 -61 27 -223 35
-296 15z"/>
<path d="M18889 6892 c-55 -44 -133 -65 -340 -92 -238 -31 -325 -65 -364 -139
-58 -113 -1 -241 124 -278 71 -20 201 -13 289 17 122 42 226 143 277 268 26
65 48 175 43 217 l-3 27 -26 -20z"/>
</g>
</svg>
